<svg xmlns="http://www.w3.org/2000/svg" version="1.1" xmlns:xlink="http://www.w3.org/1999/xlink" xmlns:svgjs="http://svgjs.dev/svgjs" width="2000" height="2000" viewBox="0 0 2000 2000"><g transform="matrix(1,0,0,1,-0.28443113772425477,-0.28443113772459583)"><svg viewBox="0 0 334 334" data-background-color="#1e2124" preserveAspectRatio="xMidYMid meet" height="2000" width="2000" xmlns="http://www.w3.org/2000/svg" xmlns:xlink="http://www.w3.org/1999/xlink"><g id="tight-bounds" transform="matrix(1,0,0,1,0.04749999999998522,0.04750000000001364)"><svg viewBox="0 0 333.90454557049503 333.90454557049503" height="333.90454557049503" width="333.90454557049503"><g><svg></svg></g><g><svg viewBox="0 0 333.90454557049503 333.90454557049503" height="333.90454557049503" width="333.90454557049503"><g><path d="M0 166.952c0-92.205 74.747-166.952 166.952-166.952 92.205 0 166.952 74.747 166.953 166.952 0 92.205-74.747 166.952-166.953 166.953-92.205 0-166.952-74.747-166.952-166.953zM166.952 325.516c87.573 0 158.564-70.992 158.564-158.564 0-87.573-70.992-158.564-158.564-158.564-87.573 0-158.564 70.992-158.564 158.564 0 87.573 70.992 158.564 158.564 158.564z" data-fill-palette-color="tertiary" fill="#282b30" stroke="transparent"></path><ellipse rx="160.27418187383762" ry="160.27418187383762" cx="166.95227278524752" cy="166.95227278524752" fill="#282b30" stroke="transparent" stroke-width="0" fill-opacity="1" data-fill-palette-color="tertiary"></ellipse></g><g transform="matrix(1,0,0,1,99.7548771087678,71.17305217166896)"><svg viewBox="0 0 134.39479135295943 191.55844122715712" height="191.55844122715712" width="134.39479135295943"><g><svg viewBox="0 0 134.39479135295943 191.55844122715712" height="191.55844122715712" width="134.39479135295943"><g><svg viewBox="0 0 213.1584412271571 303.8235211709018" height="191.55844122715712" width="134.39479135295943"><g transform="matrix(1,0,0,1,0,156.29805114950187)"><svg viewBox="0 0 213.1584412271571 147.5254700213999" height="147.5254700213999" width="213.1584412271571"><g id="textblocktransform"><svg viewBox="0 0 213.1584412271571 147.5254700213999" height="147.5254700213999" width="213.1584412271571" id="textblock"><g><svg viewBox="0 0 213.1584412271571 147.5254700213999" height="147.5254700213999" width="213.1584412271571"><g transform="matrix(1,0,0,1,0,0)"><svg width="213.1584412271571" viewBox="1.25 -36.2 53.75 37.2" height="147.5254700213999" data-palette-color="url(#b6be589a-956d-4609-bf37-ba24d63ef9cf)"></svg></g></svg></g></svg></g></svg></g><g transform="matrix(1,0,0,1,40.713262274387006,0)"><svg viewBox="0 0 131.7319166783831 121.47082828872986" height="121.47082828872986" width="131.7319166783831"><g><svg xmlns="http://www.w3.org/2000/svg" xmlns:xlink="http://www.w3.org/1999/xlink" version="1.1" x="0" y="0" viewBox="50 66 412.1 380" style="enable-background:new 0 0 512 512;" xml:space="preserve" height="121.47082828872986" width="131.7319166783831" class="icon-icon-0" data-fill-palette-color="quaternary" id="icon-0"></svg></g></svg></g><g></g></svg></g></svg></g></svg></g></svg></g><defs></defs><mask id="c5f875f0-b9be-4b2b-936d-82be7a09217b"><g id="SvgjsG3217"><svg viewBox="0 0 333.90454557049503 333.90454557049503" height="333.90454557049503" width="333.90454557049503"><g><svg></svg></g><g><svg viewBox="0 0 333.90454557049503 333.90454557049503" height="333.90454557049503" width="333.90454557049503"><g><path d="M0 166.952c0-92.205 74.747-166.952 166.952-166.952 92.205 0 166.952 74.747 166.953 166.952 0 92.205-74.747 166.952-166.953 166.953-92.205 0-166.952-74.747-166.952-166.953zM166.952 325.516c87.573 0 158.564-70.992 158.564-158.564 0-87.573-70.992-158.564-158.564-158.564-87.573 0-158.564 70.992-158.564 158.564 0 87.573 70.992 158.564 158.564 158.564z" fill="black" stroke="transparent"></path><ellipse rx="160.27418187383762" ry="160.27418187383762" cx="166.95227278524752" cy="166.95227278524752" fill="black" stroke="transparent" stroke-width="0" fill-opacity="1"></ellipse></g><g transform="matrix(1,0,0,1,99.7548771087678,71.17305217166896)"><svg viewBox="0 0 134.39479135295943 191.55844122715712" height="191.55844122715712" width="134.39479135295943"><g><svg viewBox="0 0 134.39479135295943 191.55844122715712" height="191.55844122715712" width="134.39479135295943"><g><svg viewBox="0 0 213.1584412271571 303.8235211709018" height="191.55844122715712" width="134.39479135295943"><g transform="matrix(1,0,0,1,0,156.29805114950187)"><svg viewBox="0 0 213.1584412271571 147.5254700213999" height="147.5254700213999" width="213.1584412271571"><g id="SvgjsG3216"><svg viewBox="0 0 213.1584412271571 147.5254700213999" height="147.5254700213999" width="213.1584412271571" id="SvgjsSvg3215"><g><svg viewBox="0 0 213.1584412271571 147.5254700213999" height="147.5254700213999" width="213.1584412271571"><g transform="matrix(1,0,0,1,0,0)"><svg width="213.1584412271571" viewBox="1.25 -36.2 53.75 37.2" height="147.5254700213999" data-palette-color="url(#b6be589a-956d-4609-bf37-ba24d63ef9cf)"><path d="M2.7-19.45L2.7-19.45 2.45-28.9Q2.45-31.15 1.95-32.45 1.45-33.75 1.45-33.85L1.45-33.85Q1.45-34.95 4.83-35.55 8.2-36.15 9.98-36.15 11.75-36.15 11.9-35.3L11.9-35.3Q15.05-21.25 17.2-15.8L17.2-15.8Q17.45-15.2 17.73-15.2 18-15.2 18.2-15.65L18.2-15.65Q21.55-25.1 24.1-34.35L24.1-34.35Q24.3-34.95 25.1-35.27 25.9-35.6 27.88-35.9 29.85-36.2 31.8-36.2 33.75-36.2 33.75-35.4L33.75-35.4Q33.75-35.35 33.6-34.63 33.45-33.9 33.3-32.85 33.15-31.8 32.95-30.3L32.95-30.3Q32.5-26.85 32.38-22.38 32.25-17.9 32.25-13.4L32.25-13.4 32.35-8.15Q32.35-4.55 32.83-3.03 33.3-1.5 33.3-1.28 33.3-1.05 32.95-0.75L32.95-0.75Q31.4 0.5 28.25 0.5L28.25 0.5Q26.25 0.5 26-0.85L26-0.85Q25.85-1.55 25.85-3.08 25.85-4.6 26.15-12.45 26.45-20.3 26.45-23.88 26.45-27.45 26.05-27.45L26.05-27.45Q26-27.45 26-27.43 26-27.4 25.85-27.35 25.7-27.3 25.08-25.8 24.45-24.3 22.6-18.4 20.75-12.5 19.25-7.38 17.75-2.25 17.6-1.85L17.6-1.85Q17.05-0.5 15.5-0.5L15.5-0.5Q14.75-0.5 14.3-1.05L14.3-1.05Q12.7-8.45 8.6-22.2L8.6-22.2 7.2-26.75Q7.1-27 7-27L7-27Q6.75-27 6.65-26.65L6.65-26.65Q6.45-23.4 6.45-13.88 6.45-4.35 7.15-1.85L7.15-1.85Q7.2-1.75 7.2-1.55L7.2-1.55Q7.2-0.5 5.55-0.03 3.9 0.45 2.58 0.45 1.25 0.45 1.25-0.15L1.25-0.15Q1.25-0.2 1.5-0.95L1.5-0.95Q2.25-3.5 2.48-8.35 2.7-13.2 2.7-19.45ZM41.15-18.85L41.15-18.85Q39.85-18.8 39.27-18.78 38.7-18.75 38.7-19.05 38.7-19.35 39-19.65L39-19.65Q42.2-22.6 49.8-22.6L49.8-22.6Q52.4-22.6 53.9-22.15L53.9-22.15 54.4-22Q55-21.75 55-21.45L55-21.45Q55-21.2 54.65-21.05L54.65-21.05Q53.3-20.65 52.05-19.78 50.8-18.9 50.8-18.55L50.8-18.55 51.1-18.2Q52.7-17.3 53.57-15.35 54.45-13.4 54.55-11.9L54.55-11.9 54.65-10.35Q54.65-5.4 51.9-2.2 49.15 1 44.4 1L44.4 1Q42 1 40.25 0.15 38.5-0.7 37.67-1.78 36.85-2.85 36.35-4.2L36.35-4.2Q35.75-6.05 35.75-8.03 35.75-10 36.42-12 37.1-14 37.97-14.95 38.85-15.9 39.95-16.5L39.95-16.5Q41.35-17.25 42.2-17.25 43.05-17.25 43.05-16.9L43.05-16.9 42.75-16.4Q41.65-15.1 41.17-13 40.7-10.9 40.7-9.28 40.7-7.65 41.1-6.05 41.5-4.45 42-3.68 42.5-2.9 43.15-2.5L43.15-2.5Q44.1-1.9 45.15-1.9 46.2-1.9 47.2-2.73 48.2-3.55 48.65-4.9L48.65-4.9Q49.55-7.4 49.55-10.05L49.55-10.05Q49.55-14.25 47.42-16.55 45.3-18.85 41.15-18.85Z" opacity="1" transform="matrix(1,0,0,1,0,0)" fill="white" class="wordmark-text-0" id="SvgjsPath3214"></path></svg></g></svg></g></svg></g></svg></g><g transform="matrix(1,0,0,1,40.713262274387006,0)"><svg viewBox="0 0 131.7319166783831 121.47082828872986" height="121.47082828872986" width="131.7319166783831"><g><svg xmlns="http://www.w3.org/2000/svg" xmlns:xlink="http://www.w3.org/1999/xlink" version="1.1" x="0" y="0" viewBox="50 66 412.1 380" style="enable-background:new 0 0 512 512;" xml:space="preserve" height="121.47082828872986" width="131.7319166783831" class="icon-icon-0" data-fill-palette-color="quaternary" id="SvgjsSvg3213"><g fill="white"><path d="M50 326.9C50 339.7 60.7 350 73.6 350H438.5C451.3 350 462.1 339.7 462.1 326.9V306H50z" fill="white"></path><path d="M263.2 179.2C263.2 174.7 259.5 171 255 171S246.8 174.7 246.8 179.2 250.5 187.4 255 187.4C259.6 187.4 263.2 183.7 263.2 179.2" fill="white"></path><path d="M255.1 116.1C250.6 116.1 246.9 119.8 246.9 124.3S250.6 132.5 255.1 132.5 263.3 128.8 263.3 124.3C263.2 119.8 259.6 116.1 255.1 116.1" fill="white"></path><path d="M255.1 227.7C250.6 227.7 246.9 231.4 246.9 235.9S250.6 244.1 255.1 244.1 263.3 240.4 263.3 235.9C263.2 231.4 259.6 227.7 255.1 227.7" fill="white"></path><path d="M200.2 171C195.7 171 192 174.7 192 179.2S195.7 187.4 200.2 187.4 208.4 183.7 208.4 179.2C208.4 174.6 204.7 171 200.2 171" fill="white"></path><path d="M200.2 132.5C204.7 132.5 208.4 128.8 208.4 124.3S204.7 116.1 200.2 116.1 192 119.8 192 124.3 195.7 132.5 200.2 132.5" fill="white"></path><path d="M200.2 227.7C195.7 227.7 192 231.4 192 235.9S195.7 244.1 200.2 244.1 208.4 240.4 208.4 235.9 204.7 227.7 200.2 227.7" fill="white"></path><path d="M438.4 66H73.6C60.7 66 50.2 76.4 50 89.2V294H462V89.2C461.8 76.4 451.3 66 438.4 66M291.6 124.3C291.6 113.2 300.6 104.1 311.8 104.1S332 113.1 332 124.3 323 144.5 311.8 144.5 291.6 135.5 291.6 124.3M200.2 256.1C189 256.1 180 247.1 180 235.9S189 215.7 200.2 215.7 220.4 224.7 220.4 235.9 211.3 256.1 200.2 256.1M275.2 235.9C275.2 247.1 266.2 256.1 255.1 256.2 243.9 256.2 234.9 247.2 234.8 236.1 234.8 234.3 235 232.5 235.5 230.8L203.8 199C192.8 201 182.3 193.8 180.2 182.8 180 181.6 179.9 180.4 179.9 179.1 179.9 170.4 186 163 193 160.2V143.2C186 140.4 179.9 133 179.9 124.3 179.9 113.2 188.9 104.1 200.1 104.1S220.3 113.1 220.3 124.3C220.4 133.6 214.1 141.6 205.1 143.8V159.6C215.9 162.3 222.5 173.3 219.8 184.1 219 187.5 217.3 190.5 214.9 193L242.3 220.3C244.6 218.4 247.3 217 250.2 216.3V198.6C239.4 195.8 232.9 184.8 235.7 174S249.5 156.7 260.3 159.5 277.6 173.3 274.8 184.1C273.1 190.5 268.4 195.7 262.2 198V217C269.9 219.9 275.2 227.5 275.2 235.9M319 198.1V217C326 219.8 332.1 227.2 332.1 235.9 332.1 247 323.1 256.1 311.9 256.1 300.8 256.1 291.7 247.1 291.7 235.9 291.6 226.6 297.9 218.6 306.9 216.4V198.7C296.1 196 289.5 185 292.3 174.2 292.6 172.9 293.1 171.6 293.7 170.3L265.2 141.7C255.5 147.4 243.1 144.2 237.4 134.6 231.7 124.9 234.9 112.5 244.5 106.8 254.2 101.1 266.6 104.3 272.3 113.9 275.7 119.7 276.1 126.8 273.2 132.8L301.8 161.6C304.8 159.9 308.2 159 311.7 159 322.9 159 331.9 168 332 179.2 332.1 187.8 326 195.3 319 198.1" fill="white"></path><path d="M311.8 132.5C316.3 132.5 320 128.8 320 124.3S316.3 116.1 311.8 116.1 303.6 119.8 303.6 124.3 307.3 132.5 311.8 132.5" fill="white"></path><path d="M311.8 171C307.3 171 303.6 174.7 303.6 179.2S307.3 187.4 311.8 187.4 320 183.7 320 179.2C320 174.6 316.3 171 311.8 171" fill="white"></path><path d="M311.8 227.7C307.3 227.7 303.6 231.4 303.6 235.9S307.3 244.1 311.8 244.1 320 240.4 320 235.9 316.3 227.7 311.8 227.7" fill="white"></path><path d="M351.2 434H318V356H194V434H166.1C162.8 434 160.1 436.7 160.1 440S162.8 446 166.1 446H351.1C354.4 446 357.1 443.3 357.1 440S354.5 434 351.2 434" fill="white"></path></g></svg></g></svg></g><g></g></svg></g></svg></g></svg></g></svg></g><defs><mask></mask></defs></svg><rect width="333.90454557049503" height="333.90454557049503" fill="black" stroke="none" visibility="hidden"></rect></g></mask><linearGradient x1="0" x2="1" y1="0.548" y2="0.55" id="b6be589a-956d-4609-bf37-ba24d63ef9cf"><stop stop-color="#ff6cab" offset="0"></stop><stop stop-color="#7366ff" offset="1"></stop></linearGradient><rect width="333.905" height="333.905" fill="url(#b6be589a-956d-4609-bf37-ba24d63ef9cf)" mask="url(#c5f875f0-b9be-4b2b-936d-82be7a09217b)" data-fill-palette-color="quaternary"></rect></svg><rect width="333.90454557049503" height="333.90454557049503" fill="none" stroke="none" visibility="hidden"></rect></g></svg></g></svg>